<?xml version="1.0" encoding="iso-8859-1"?>
<!-- Generator: Adobe Illustrator 19.0.0, SVG Export Plug-In . SVG Version: 6.00 Build 0)  -->
<svg version="1.1" id="Capa_1" xmlns="http://www.w3.org/2000/svg" xmlns:xlink="http://www.w3.org/1999/xlink" x="0px" y="0px"
	 viewBox="0 0 512 512" style="enable-background:new 0 0 512 512;" xml:space="preserve">
<path style="fill:#F0EFEB;" d="M512,256c0,141.385-114.615,256-256,256C138.543,512,39.56,432.891,9.425,325.047
	c-0.209-0.721-0.397-1.432-0.596-2.152c-1.034-3.824-1.975-7.69-2.842-11.577c0-0.042-0.01-0.073-0.021-0.115
	C2.058,293.418,0,274.954,0,256c0-34.283,6.74-66.978,18.975-96.862v-0.01c1.191-2.926,2.435-5.831,3.741-8.704
	c2.351-5.204,4.88-10.313,7.576-15.318c0.752-1.411,1.526-2.811,2.309-4.2C76.434,52.778,160.057,0,256,0
	c120.592,0,221.706,83.372,248.832,195.626c0.167,0.658,0.324,1.317,0.481,1.975c1.149,4.953,2.163,9.968,3.02,15.036
	c0.512,3.03,0.982,6.081,1.39,9.143C511.227,232.97,512,244.391,512,256z"/>
<path style="fill:#F66503;" d="M163.182,269.772c-1.996,16.833-4.232,33.635-5.883,50.5c-0.46,4.608-2.184,5.339-6.269,5.151
	c-39.56-1.724-79.151-0.993-118.732-1.076c-7.638-0.01-15.256,0.408-22.873,0.7c-0.209-0.721-0.397-1.432-0.596-2.152
	c-1.034-3.824-1.975-7.69-2.842-11.577c0.92-0.219,1.829-0.418,2.748-0.616c7.481-1.578,9.937-4.681,10.136-12.392
	c0.366-15.005,0.773-29.999,0.815-45.004c0.052-23.782-0.167-47.564-0.313-71.346c-0.052-7.429-0.272-14.848-0.387-22.277
	c0-0.188-0.01-0.366-0.01-0.543v-0.01c-0.157-6.635-1.337-10.25-4.869-12.507c-1.996-1.275-4.733-2.121-8.453-2.811
	c-1.87-0.345-3.762-0.627-5.653-0.94v-12.978c7.314,0.324,14.629,0.669,21.953,0.857c1.944,0.042,3.887,0.084,5.831,0.104
	c1.609,0.021,3.208,0.042,4.817,0.052c31.817,0.387,63.666,0.972,95.472-0.575c7.732-0.387,15.59-0.355,23.155-2.581h1.787
	c1.076,1.223,0.972,2.685,0.878,4.169c-1.003,16.175-2.079,32.35-2.915,48.536c-0.157,2.905-1.003,4.012-3.877,3.626
	c-1.327-0.188-2.696-0.167-4.023-0.01c-2.341,0.293-3.271-0.627-3.877-2.968c-1.766-6.896-3.187-13.908-5.705-20.595
	c-4.942-13.093-9.77-16.53-23.531-16.53c-17.711,0-35.422-0.01-53.144,0.01c-6.76,0-7.304,0.575-7.304,7.419
	c0,21.431,0.073,42.872-0.073,64.303c-0.021,3.406,0.752,4.618,4.389,4.545c12.34-0.251,24.701,0.084,37-1.296
	c7.67-0.867,10.177-2.926,12.069-10.25c1.223-4.754,2.539-9.488,3.417-14.305c0.554-3.062,1.703-4.148,4.932-4.054
	c8.046,0.188,8.108,0.021,7.492,8.056c-1.463,19.456-1.223,38.933-0.502,58.399c0.136,3.699-0.846,4.827-4.629,4.66
	c-7.178-0.293-7.178-0.063-8.746-7.084c-0.711-3.197-1.379-6.395-2.236-9.55c-1.755-6.457-5.935-10.313-12.716-10.553
	c-12.476-0.47-24.973-0.606-37.46-0.972c-2.466-0.084-2.978,0.961-2.968,3.166c0.063,19.352-0.136,38.703,0.104,58.044
	c0.125,10.386,5.663,16.123,16.112,16.332c17.105,0.334,34.231,0.376,51.336-0.063c12.069-0.334,20.125-7.272,25.067-17.93
	c3.438-7.419,6.593-14.952,9.895-22.423c1.191-2.706,8.694-4.786,10.961-3.062C163.934,268.1,163.286,268.957,163.182,269.772z"/>
<g>
	<path style="fill:#F66604;" d="M509.722,221.78c-14.503,35.735-29.727,71.199-45.046,106.59
		c-6.457,14.921-14.838,28.766-26.833,40.061c-8.296,7.805-17.935,12.528-29.236,14.994c-1.999,0.436-4.973,0.672-8.105,0.79
		c-8.086,0.305-16.185-0.81-23.868-3.355c-1.785-0.591-3.538-1.278-5.195-2.241c-2.152-1.243-2.863-2.445-2.142-4.921
		c2.947-10,4.639-20.281,5.966-30.595c0.412-3.188,1.601-4.204,4.652-4.065c1.081,0.049,2.177-0.02,3.242-0.21
		c3.038-0.541,4.541,0.306,5,3.721c0.742,5.58,2.027,11.097,3.208,16.624c1.599,7.523,5.695,10.365,13.437,9.582
		c11.839-1.212,20.752-7.544,28.348-16.144c4.953-5.59,8.892-11.88,12.413-18.463c1.045-1.944,0.951-3.532,0.209-5.433
		c-14.555-37.355-29.383-74.595-45.422-111.344c-2.738-6.259-6.531-10.721-13.521-12.267c-5.099-1.128-2.602-5.569-2.769-8.526
		c-0.188-3.406,2.894-1.839,4.368-1.735c19.331,1.411,38.64,0.669,57.96-0.084c1.62-0.063,4.221-0.888,3.647,2.111
		c-0.502,2.633,2.518,6.541-2.424,7.774c-2.163,0.533-4.357,0.972-6.52,1.505c-8.37,2.048-10.836,6.207-8.025,14.378
		c8.119,23.594,16.948,46.916,26.039,70.154c0.899,2.32,1.86,4.618,3.177,7.858c1.693-3.668,3.093-6.478,4.294-9.362
		c9.362-22.476,18.725-44.952,28.014-67.469c3.041-7.356,1.16-11.598-6.175-14.43c-2.215-0.857-4.472-1.672-6.781-2.194
		c-2.299-0.512-3.03-1.672-3.062-4.012c-0.094-6.541-0.188-6.74,6.343-6.259c6.646,0.491,13.281,0.773,19.916,0.815
		c0.167,0.658,0.324,1.317,0.481,1.975c1.149,4.953,2.163,9.968,3.02,15.036C508.844,215.667,509.315,218.718,509.722,221.78z"/>
	<path style="fill:#F66604;" d="M329.654,191.059c13.849,0.213,24.875,1.532,35.707,4.488c2.999,0.818,3.745,1.976,3.303,5.275
		c-1.126,8.387-1.746,16.861-2.125,25.321c-0.147,3.279-1.096,4.035-4.305,4.43c-4.909,0.605-7.279-0.891-8.288-5.735
		c-0.814-3.903-2.624-7.588-3.629-11.465c-1.384-5.339-4.849-8.251-9.933-9.78c-7.674-2.31-15.296-2.25-22.751,0.604
		c-11.25,4.307-14.519,16.888-6.965,26.322c4.016,5.016,9.487,8.047,15.137,10.763c8.165,3.925,16.517,7.487,24.533,11.691
		c10.679,5.601,19.5,13.048,22.716,25.477c4.586,17.723-3.065,34.896-19.518,42.999c-14.18,6.983-29.221,7.364-44.49,5.159
		c-7.947-1.148-15.75-2.986-23.411-5.439c-1.998-0.639-2.755-1.309-2.493-3.7c1.153-10.529,0.985-21.106-0.021-31.635
		c-0.282-2.949,0.628-3.272,3.234-3.633c5.312-0.736,8.236,1.037,9.515,6.327c0.831,3.438,2.612,6.633,3.713,10.02
		c5.301,16.311,18.54,19.322,30.411,18.306c8.687-0.744,15.885-4.182,18.679-13.327c2.74-8.966-0.204-17.426-8.095-23.728
		c-7.065-5.642-15.493-8.736-23.591-12.421c-5.553-2.527-11.075-5.089-16.204-8.412c-13-8.425-18.74-20.329-16.811-35.732
		c1.979-15.8,11.825-24.728,26.312-29.304C317.426,191.67,324.812,190.852,329.654,191.059z"/>
</g>
<path style="fill:#F66503;" d="M192.322,256.169c0-13.548-0.112-27.099,0.081-40.644c0.046-3.232-0.944-3.993-3.996-3.856
	c-5.497,0.247-11.018-0.045-16.522,0.12c-2.579,0.077-3.531-0.473-3.673-3.368c-0.219-4.46,0.656-6.589,5.749-7.53
	c14.406-2.659,23.296-12.267,28.969-25.259c2.268-5.195,3.965-10.595,4.863-16.175c0.503-3.122,1.774-4.058,4.938-3.963
	c7.288,0.22,7.294,0.032,7.294,7.256c0,9.976,0.124,19.953-0.074,29.925c-0.061,3.05,0.603,4.12,3.848,3.935
	c10.982-0.628,21.983-0.914,32.971-1.443c5.209-0.251,5.189-0.369,4.544,4.758c-0.371,2.952-1.086,5.93-0.936,8.861
	c0.232,4.571-1.968,4.881-5.688,4.516c-10.062-0.985-20.167-1.534-30.235-2.459c-3.29-0.302-4.56,0.271-4.526,4.052
	c0.199,22.628,0.09,45.26,0.106,67.891c0.003,4.769,0.345,9.513,1.536,14.155c3.075,11.988,11.222,16.796,23.187,13.601
	c5.432-1.45,10.23-4.096,13.864-8.47c1.331-1.603,1.988-1.465,3.306,0.056c4.43,5.116,4.546,6.337,0.45,11.714
	c-4.8,6.302-11.34,9.976-18.758,12.176c-8.545,2.535-17.236,3.054-25.99,1.113c-15.689-3.481-25.128-15.041-25.282-31.209
	C192.222,282.672,192.322,269.421,192.322,256.169z"/>
<g>
</g>
<g>
</g>
<g>
</g>
<g>
</g>
<g>
</g>
<g>
</g>
<g>
</g>
<g>
</g>
<g>
</g>
<g>
</g>
<g>
</g>
<g>
</g>
<g>
</g>
<g>
</g>
<g>
</g>
</svg>
